<?xml version="1.0" encoding="UTF-8" standalone="no"?>
<svg width="194px" height="142px" viewBox="0 0 194 142" version="1.1" xmlns="http://www.w3.org/2000/svg" xmlns:xlink="http://www.w3.org/1999/xlink" xmlns:sketch="http://www.bohemiancoding.com/sketch/ns">
    <title>Slice 1</title>
    <description>Created with Sketch (http://www.bohemiancoding.com/sketch)</description>
    <defs></defs>
    <g id="Page 1" stroke="none" stroke-width="1" fill="none" fill-rule="evenodd">
        <g id="Group copy 2" transform="translate(1.000000, 1.000000)" fill="#000000">
            <path d="M85.98,74.462 L0.903,14.908 L85.98,14.908 L85.98,48.938 L122.442,48.938 L85.98,74.462 Z M85.98,74.462" id="Shape"></path>
            <path d="M145.534,98.984 L188.072,98.984 L188.072,56.446 L151.611,56.446 L145.534,60.7 L145.534,98.984 Z M145.534,98.984" id="Shape" fill-opacity="0.50402114"></path>
            <path d="M94.488,38.304 L130.949,38.304 L137.026,34.05 L137.026,4.273 L94.488,4.273 L94.488,38.304 Z M94.488,38.304" id="Shape" fill-opacity="0.721966912"></path>
            <path d="M145.534,29.7965 L188.072,0.0195 L145.534,0.0195 L145.534,29.7965 Z M145.534,29.7965" id="Shape" fill-opacity="0.338407629"></path>
            <path d="M137.026,51.065 L173.487,51.065 L173.487,25.543 L137.026,51.065 Z M137.026,51.065" id="Shape" fill-opacity="0.500775506"></path>
            <path d="M97.4880066,101.730504 L97.4880066,127.253505 L140.027008,127.253505 L140.027008,101.730504 L97.4880066,101.730504 Z M97.4880066,101.730504" id="Rectangle" fill-opacity="0.721449908"></path>
            <path d="M0.903,23.416 L0.903,117 L85.98,117 L85.98,91.477 L128.519,91.477 L128.519,53.192 L85.98,82.969 L0.903,23.416 Z M0.903,23.416" id="Shape"></path>
            <path d="M150.041992,114.492004 L150.041992,140.015005 L192.580994,140.015005 L192.580994,114.492004 L150.041992,114.492004 Z M150.041992,114.492004" id="Rectangle" fill-opacity="0.334817325"></path>
        </g>
    </g>
</svg>